<svg width="107" height="127" viewBox="0 0 107 127" fill="none" xmlns="http://www.w3.org/2000/svg">
<path fill-rule="evenodd" clip-rule="evenodd" d="M84.8581 28.3934C62.7741 26.1153 60.0465 9.05148 61.6482 0.219513C61.6482 0.219513 86.7801 7.32637 92.5798 13.1411C94.8995 15.4667 94.9512 18.4125 94.1781 21.1104C95.1345 20.5226 96.039 20.029 96.8672 19.6485C102.659 16.9872 101.202 19.2165 99.5236 21.7837C99.4422 21.9083 99.3602 22.0337 99.2785 22.1594C98.6774 23.0841 96.849 24.6123 94.4987 26.5769C89.9476 30.381 83.4394 35.821 80.0956 41.6816C75.0251 50.5688 71.223 46.212 75.9225 38.7614C78.0655 35.3638 81.3466 31.6706 84.8581 28.3934Z" fill="#0A590C"/>
<path fill-rule="evenodd" clip-rule="evenodd" d="M42.3111 114.91C65.5642 121.141 89.4654 107.341 95.6961 84.0884C101.927 60.8353 88.1273 36.934 64.8742 30.7033C49.8058 26.6657 34.4652 31.0393 23.8374 40.946L52.5619 73.1034L53.4455 73.3559L52.5981 73.1439L52.8253 73.3982L52.5775 73.1387L11.1731 62.7774C5.75679 85.6303 19.4752 108.791 42.3111 114.91ZM52.537 73.0963L22.7979 41.9476C17.5728 47.152 13.6004 53.753 11.5295 61.3759L52.537 73.0963Z" fill="#EE7300"/>
<path fill-rule="evenodd" clip-rule="evenodd" d="M51.2878 71.6768L51.5908 72.016L51.5454 72.0575L46.0543 66.3061L42.3446 62.2396L22.8356 41.806C17.6105 47.0104 13.6381 53.6114 11.5671 61.2344L11.5681 61.2347L11.5295 61.3759L49.202 72.1431L44.5216 70.9718L52.6567 73.1516L51.2878 71.6768ZM52.4247 72.9495L52.3795 72.899L52.3373 72.8869L52.3884 72.9405L52.4247 72.9495Z" fill="white"/>
<path fill-rule="evenodd" clip-rule="evenodd" d="M45.286 67.714L45.5893 68.0535L45.5439 68.095L40.0527 62.3435L36.3434 58.2775L16.8341 37.8435C11.609 43.0479 7.63654 49.6489 5.56557 57.2719L5.56656 57.2722L5.52794 57.4134L43.201 68.1807L38.5206 67.0095L46.6552 69.1891L45.286 67.714ZM46.4232 68.987L46.378 68.9365L46.3358 68.9244L46.3869 68.978L46.4232 68.987Z" fill="#ED4524"/>
</svg>
